<?xml version="1.0" encoding="UTF-8"?>
<svg version="1.1" xmlns="http://www.w3.org/2000/svg" width="512" height="512">
<path d="M0 0 C1.18462326 -0.01727142 2.36924652 -0.03454285 3.58976746 -0.05233765 C4.90140869 -0.06602386 6.21304993 -0.07971008 7.56443787 -0.09381104 C8.95060583 -0.11152514 10.33677015 -0.12952708 11.72293091 -0.14779663 C24.39927404 -0.30706209 37.07671494 -0.39120029 49.75384617 -0.45779037 C59.12496802 -0.50800353 68.49433646 -0.59386877 77.86466271 -0.72641158 C84.45240329 -0.81645384 91.03966345 -0.86424489 97.62799209 -0.88136888 C101.56283817 -0.89282698 105.49544447 -0.9230766 109.42961311 -0.99932098 C113.13637134 -1.07038231 116.83979059 -1.08894881 120.54713631 -1.06820297 C122.5474554 -1.07030241 124.54748742 -1.12693102 126.54695129 -1.18545532 C135.19314948 -1.06652351 135.19314948 -1.06652351 139.06115532 2.54708099 C141.12633177 5.34665055 142.85753691 8.15377453 144.54270935 11.1942749 C145.65055503 12.91646606 146.76630729 14.63363066 147.89427185 16.3427124 C148.98832365 18.0830765 150.07938311 19.82532465 151.16770935 21.5692749 C155.72462223 28.79798741 160.34431663 35.97319412 165.10520935 43.0692749 C170.99134598 51.84761408 176.81103179 60.66760834 182.60520935 69.5067749 C183.05010712 70.1853656 183.49500488 70.8639563 183.9533844 71.56311035 C186.23767318 75.04745847 188.52143574 78.53215103 190.80491638 82.01702881 C194.77927197 88.0818323 198.75838311 94.14351432 202.73725891 100.20535278 C204.9226155 103.53485801 207.10764546 106.86457758 209.29270935 110.1942749 C210.1677078 111.52760926 211.0427078 112.86094259 211.91770935 114.1942749 C280.16770935 218.1942749 280.16770935 218.1942749 281.47991943 220.19386292 C282.35584939 221.52859345 283.23181584 222.86330003 284.1078186 224.19798279 C286.28138856 227.50974457 288.4543443 230.82190595 290.6259613 234.13494873 C294.72880693 240.3928537 298.83810438 246.64626893 302.96760559 252.8866272 C304.9206934 255.83883369 306.8705004 258.7931999 308.8200531 261.7477417 C309.75151771 263.15735599 310.68459376 264.56590693 311.61936951 265.97332764 C312.91429998 267.92322203 314.20366299 269.8766915 315.4919281 271.83099365 C315.8742308 272.40347336 316.25653351 272.97595306 316.65042114 273.56578064 C318.75194144 276.76722025 320.09493468 279.57483822 321.54270935 283.1942749 C152.58270935 283.1942749 -16.37729065 283.1942749 -190.45729065 283.1942749 C-188.77209527 278.98128644 -186.89334204 275.55490459 -184.4065094 271.83099365 C-184.00064102 271.21529007 -183.59477264 270.59958649 -183.17660522 269.96522522 C-181.83677675 267.93465955 -180.49074876 265.9082816 -179.14479065 263.8817749 C-178.1963978 262.44654257 -177.24848928 261.0109901 -176.30104065 259.57513428 C-174.33205089 256.59195547 -172.3609824 253.61016628 -170.38844299 250.6293335 C-166.32561009 244.48634085 -162.288158 238.326741 -158.25065613 232.16708374 C-156.07075379 228.84201386 -153.88891729 225.51821358 -151.70729065 222.1942749 C-150.83228154 220.86094755 -149.95728154 219.52761422 -149.08229065 218.1942749 C-59.83229066 82.19427491 -59.83229066 82.19427491 -58.51989746 80.19444275 C-57.6445352 78.86055401 -56.76917917 77.52666118 -55.89382935 76.19276428 C-53.71192284 72.86789521 -51.52990965 69.54309625 -49.34767151 66.21844482 C-45.34338959 60.11766455 -41.34004401 54.01627745 -37.34043884 47.91242981 C-20.5712221 22.32077583 -20.5712221 22.32077583 -12.20729065 9.7567749 C-11.62858215 8.88641602 -11.04987366 8.01605713 -10.45362854 7.11932373 C-9.93405579 6.34097168 -9.41448303 5.56261963 -8.87916565 4.76068115 C-8.4315387 4.08980469 -7.98391174 3.41892822 -7.52272034 2.72772217 C-5.33189805 -0.42547554 -3.82911207 0.04940596 0 0 Z " fill="#58595A" transform="translate(190.45729064941406,228.80572509765625)"/>
<path d="M0 0 C14.67993967 12.8477066 23.92905862 30.54020531 25.54296875 50.015625 C27.75874057 93.9702361 -13.64782425 141.24445826 -39.87744141 172.91552734 C-42.64970626 176.17797281 -42.64970626 176.17797281 -44.875 179.8125 C-45.535 179.8125 -46.195 179.8125 -46.875 179.8125 C-48.52634592 177.93413289 -50.04952241 176.04914534 -51.5625 174.0625 C-52.045979 173.43472656 -52.52945801 172.80695313 -53.02758789 172.16015625 C-54.08991165 170.77650924 -55.14891425 169.3903078 -56.20507812 168.00195312 C-57.86941732 165.81981952 -59.55109298 163.65191537 -61.234375 161.484375 C-120.86163888 84.03014752 -120.86163888 84.03014752 -116.875 45.8125 C-114.12383001 26.49106476 -104.24733045 9.9197868 -89 -2.125 C-82.97734114 -6.36576109 -76.74495897 -9.55105818 -69.875 -12.1875 C-69.00230469 -12.5278125 -68.12960938 -12.868125 -67.23046875 -13.21875 C-44.33316838 -20.46006315 -18.67288935 -14.34141289 0 0 Z " fill="#FE4764" transform="translate(301.875,15.1875)"/>
<path d="M0 0 C4.49832382 -0.32137305 8.99369159 -0.51538405 13.5 -0.6875 C14.7684375 -0.77966797 16.036875 -0.87183594 17.34375 -0.96679688 C26.58057112 -1.23139331 26.58057112 -1.23139331 30.45849609 2.1328125 C32.56256347 4.99010064 34.29464203 7.88992393 36 11 C37.10745555 12.72244206 38.22433231 14.43887132 39.3515625 16.1484375 C40.4456143 17.88880159 41.53667376 19.63104974 42.625 21.375 C47.18191288 28.6037125 51.80160728 35.77891922 56.5625 42.875 C62.44863663 51.65333918 68.26832244 60.47333344 74.0625 69.3125 C74.50739777 69.9910907 74.95229553 70.6696814 75.41067505 71.36883545 C77.69496383 74.85318357 79.97872639 78.33787613 82.26220703 81.82275391 C86.23656262 87.88755739 90.21567376 93.94923942 94.19454956 100.01107788 C96.37990615 103.34058311 98.56493611 106.67030268 100.75 110 C101.62499844 111.33333435 102.49999844 112.66666769 103.375 114 C171.625 218 171.625 218 172.93721008 219.99958801 C173.81314004 221.33431855 174.68910649 222.66902513 175.56510925 224.00370789 C177.73867921 227.31546967 179.91163495 230.62763105 182.08325195 233.94067383 C186.18609758 240.19857879 190.29539503 246.45199402 194.42489624 252.69235229 C196.37798405 255.64455879 198.32779105 258.59892499 200.27734375 261.5534668 C201.20880836 262.96308109 202.14188441 264.37163202 203.07666016 265.77905273 C204.37159062 267.72894713 205.66095364 269.6824166 206.94921875 271.63671875 C207.33152145 272.20919846 207.71382416 272.78167816 208.10771179 273.37150574 C210.20923209 276.57294534 211.55222533 279.38056332 213 283 C191.22 283 169.44 283 147 283 C143.7 276.4 140.4 269.8 137 263 C133.33003145 255.98279443 133.33003145 255.98279443 129.6328125 248.98046875 C126.73026372 243.49995492 123.86478112 238.00032506 121 232.5 C117.34803358 225.49218821 113.68536551 218.4903062 110 211.5 C105.79694496 203.52775367 101.62612488 195.53896043 97.4609375 187.546875 C94.32072685 181.52411201 91.1676187 175.5083892 88 169.5 C81.78080897 157.70127759 75.62282587 145.87066968 69.45898438 134.04296875 C63.92182154 123.41893331 58.37574404 112.79998043 52.78857422 102.20214844 C48.99135078 94.99483386 45.22592632 87.77106674 41.4609375 80.546875 C38.320727 74.52411229 35.167673 68.5083604 32 62.5 C28.31463361 55.50969214 24.65230095 48.50763857 21 41.5 C17.19591508 34.20391019 13.38829549 26.90973389 9.5625 19.625 C8.97952148 18.5122168 8.97952148 18.5122168 8.38476562 17.37695312 C5.98782438 12.81903895 3.50360605 8.32365509 0.93334961 3.86083984 C0 2 0 2 0 0 Z " fill="#FECC00" transform="translate(299,229)"/>
<path d="M0 0 C1.16781006 0.00523682 2.33562012 0.01047363 3.53881836 0.01586914 C4.79887695 0.0190918 6.05893555 0.02231445 7.35717773 0.02563477 C8.6976732 0.03399136 10.03816799 0.04245632 11.37866211 0.05102539 C12.72306153 0.05603879 14.06746271 0.06060197 15.41186523 0.06469727 C18.71334151 0.07653051 22.01473014 0.09301568 25.31616211 0.11352539 C24.21257138 3.5775229 23.07637765 6.84323576 21.35522461 10.04711914 C20.97253418 10.76609375 20.58984375 11.48506836 20.19555664 12.22583008 C19.78160645 12.99314453 19.36765625 13.76045898 18.94116211 14.55102539 C18.03440145 16.25257627 17.12817451 17.95441166 16.22241211 19.65649414 C15.74674805 20.54771973 15.27108398 21.43894531 14.78100586 22.35717773 C12.30731964 27.01183065 9.87537075 31.68814133 7.44116211 36.36352539 C6.4255842 38.31146661 5.40995878 40.25938306 4.39428711 42.20727539 C3.36820204 44.17600277 2.34216049 46.14475283 1.31616211 48.11352539 C-4.73420196 59.72347621 -10.7897394 71.33032205 -16.89526367 82.91137695 C-20.17507464 89.13661753 -23.43186696 95.373703 -26.68383789 101.61352539 C-30.73602968 109.38879695 -34.80575119 117.15444482 -38.89477539 124.91040039 C-42.69286802 132.11951889 -46.45936253 139.34498516 -50.22509766 146.57104492 C-53.34290858 152.55113304 -56.47483361 158.52349121 -59.62133789 164.48852539 C-63.50331359 171.84915463 -67.34869428 179.22839553 -71.18383789 186.61352539 C-75.41387859 194.75908735 -79.66327223 202.89375597 -83.94555664 211.01196289 C-87.20961944 217.20315298 -90.44933564 223.40684706 -93.68383789 229.61352539 C-97.33599383 236.62126252 -100.99946684 243.62266749 -104.68383789 250.61352539 C-110.37799942 261.4324323 -116.02855988 272.27424253 -121.68383789 283.11352539 C-143.46383789 283.11352539 -165.24383789 283.11352539 -187.68383789 283.11352539 C-185.99864251 278.90053693 -184.11988928 275.47415508 -181.63305664 271.75024414 C-181.22718826 271.13454056 -180.82131989 270.51883698 -180.40315247 269.88447571 C-179.06332399 267.85391004 -177.717296 265.82753209 -176.37133789 263.80102539 C-175.42294504 262.36579306 -174.47503652 260.93024058 -173.52758789 259.49438477 C-171.55859813 256.51120596 -169.58752964 253.52941677 -167.61499023 250.54858398 C-163.55215733 244.40559134 -159.51470525 238.24599149 -155.47720337 232.08633423 C-153.29730103 228.76126435 -151.11546453 225.43746406 -148.93383789 222.11352539 C-148.05882878 220.78019803 -147.18382878 219.4468647 -146.30883789 218.11352539 C-57.0588379 82.1135254 -57.0588379 82.1135254 -55.7464447 80.11369324 C-54.87108244 78.7798045 -53.99572641 77.44591167 -53.12037659 76.11201477 C-50.93847008 72.7871457 -48.75645689 69.46234673 -46.57421875 66.13769531 C-42.56993683 60.03691504 -38.56659126 53.93552794 -34.56698608 47.8316803 C-17.79776934 22.24002632 -17.79776934 22.24002632 -9.43383789 9.67602539 C-8.85512939 8.8056665 -8.2764209 7.93530762 -7.68017578 7.03857422 C-7.16060303 6.26022217 -6.64103027 5.48187012 -6.10571289 4.67993164 C-5.65808594 4.00905518 -5.21045898 3.33817871 -4.74926758 2.64697266 C-2.99828554 0.12682641 -2.99828554 0.12682641 0 0 Z " fill="#FECC00" transform="translate(187.683837890625,228.886474609375)"/>
<path d="M0 0 C0 11.55 0 23.1 0 35 C-6.435 36.98 -6.435 36.98 -13 39 C-18.64205976 43.01900147 -23.24301767 47.11572333 -25 54 C-25.94631149 63.2999577 -25.31967949 70.71310304 -20.3125 78.6875 C-14.33104501 84.66895499 -8.28958162 86.51312552 0 89 C0 123.98 0 158.96 0 195 C-5.62848665 189.37151335 -5.62848665 189.37151335 -7.83984375 186.4609375 C-8.33790527 185.80851074 -8.8359668 185.15608398 -9.34912109 184.48388672 C-9.87328613 183.7879541 -10.39745117 183.09202148 -10.9375 182.375 C-11.78175537 181.25955811 -11.78175537 181.25955811 -12.64306641 180.12158203 C-13.83347969 178.54499986 -15.02158663 176.96667391 -16.20751953 175.38671875 C-17.3770199 173.82950878 -18.54972797 172.2747012 -19.72607422 170.72265625 C-74.85476203 97.95341892 -74.85476203 97.95341892 -71 61 C-68.24883001 41.67856476 -58.37233045 25.1072868 -43.125 13.0625 C-29.43253171 3.42116251 -16.61228807 0 0 0 Z " fill="#FE3051" transform="translate(256,0)"/>
<path d="M0 0 C5.49650457 3.98329683 9.31961647 9.16497375 11.9296875 15.3984375 C13.05901497 24.94236179 12.23170581 32.75776312 6.6171875 40.6484375 C1.79149707 45.58635329 -3.39835557 49.0211516 -10.33984375 49.734375 C-17.57708343 49.81416816 -23.0887344 49.67498633 -29.0703125 45.3984375 C-30.1428125 44.6353125 -31.2153125 43.8721875 -32.3203125 43.0859375 C-38.43974949 37.10557863 -40.20860366 31.04713736 -40.3828125 22.6484375 C-40.28833922 15.04333832 -39.23491102 10.70473446 -33.9765625 5.2109375 C-24.73769973 -3.41200108 -11.67192039 -6.21034255 0 0 Z " fill="#F1F0F0" transform="translate(270.0703125,38.6015625)"/>
<path d="M0 0 C7.53188541 0 12.39035917 0.72484326 18.0234375 5.8359375 C24.58035252 13.05684391 26.5208445 18.85098807 26.28515625 28.5859375 C25.68112927 35.81771254 23.12110991 40.75979451 18 46 C11.63190334 50.7760725 8.09104082 52 0 52 C0 34.84 0 17.68 0 0 Z " fill="#F9F7F7" transform="translate(256,36)"/>
<path d="M0 0 C5.94 0 11.88 0 18 0 C18 14.52 18 29.04 18 44 C12.06 44 6.12 44 0 44 C0 29.48 0 14.96 0 0 Z " fill="#A5A7AA" transform="translate(247,468)"/>
<path d="M0 0 C5.94 0 11.88 0 18 0 C18 14.52 18 29.04 18 44 C12.06 44 6.12 44 0 44 C0 29.48 0 14.96 0 0 Z " fill="#A5A7AA" transform="translate(247,397)"/>
<path d="M0 0 C5.94 0 11.88 0 18 0 C18 11.88 18 23.76 18 36 C12.06 36 6.12 36 0 36 C0 24.12 0 12.24 0 0 Z " fill="#A4A5A8" transform="translate(247,335)"/>
<path d="M0 0 C5.94 0 11.88 0 18 0 C18 8.91 18 17.82 18 27 C12.06 27 6.12 27 0 27 C0 18.09 0 9.18 0 0 Z " fill="#A4A5A8" transform="translate(247,291)"/>
<path d="M0 0 C5.94 0 11.88 0 18 0 C18 5.94 18 11.88 18 18 C12.06 18 6.12 18 0 18 C0 12.06 0 6.12 0 0 Z " fill="#A4A5A8" transform="translate(247,256)"/>
<path d="M0 0 C5.94 0 11.88 0 18 0 C18 2.97 18 5.94 18 9 C12.06 9 6.12 9 0 9 C0 6.03 0 3.06 0 0 Z " fill="#A2A4A7" transform="translate(247,229)"/>
</svg>
