<?xml version="1.0" encoding="UTF-8"?>
<svg version="1.1" xmlns="http://www.w3.org/2000/svg" width="512" height="512">
<path d="M0 0 C0.03867187 1.30710937 0.03867187 1.30710937 0.078125 2.640625 C0.76558794 17.07734666 4.18933164 27.59824387 14.625 37.6875 C23.13778021 44.7733761 33.55313985 47.6364981 44.48828125 46.8125 C55.27691288 45.16065209 65.36031782 39.70399172 72 31 C78.10483342 21.05427395 79.39407229 11.49668107 80 0 C87.71204199 0.48664122 94.9591455 1.69978725 102.4375 3.625 C103.4780957 3.89078857 104.51869141 4.15657715 105.59082031 4.43041992 C150.19096055 16.11772413 189.51264883 39.46172822 222 72 C223.34964844 73.29744141 223.34964844 73.29744141 224.7265625 74.62109375 C232.24576703 81.88698716 238.77026423 89.61151334 245 98 C245.43054688 98.57508301 245.86109375 99.15016602 246.3046875 99.74267578 C252.81457772 108.47924436 258.61490706 117.53204482 264 127 C264.36448242 127.63180176 264.72896484 128.26360352 265.10449219 128.91455078 C280.03585402 155.00160351 289.50920268 184.33500247 294 214 C294.17732666 215.11882568 294.35465332 216.23765137 294.53735352 217.39038086 C296.21876341 229.11235947 296.35734341 240.73498976 296.3125 252.5625 C296.31034485 253.58290375 296.3081897 254.6033075 296.30596924 255.65463257 C296.25633352 270.28210524 296.00919712 284.63263838 293 299 C292.70198486 300.46228027 292.70198486 300.46228027 292.39794922 301.95410156 C282.5341358 349.10830175 261.51245417 392.22904351 228.41015625 427.37890625 C225.98854452 429.94842207 225.98854452 429.94842207 223.90625 432.640625 C222.19160596 434.76284837 220.51861761 436.43900162 218.4375 438.1875 C215.20577402 440.93891441 212.09502084 443.7833 209 446.6875 C173.22324242 479.17161643 126.56737386 499.80632154 79 507 C77.87754883 507.17660156 76.75509766 507.35320312 75.59863281 507.53515625 C63.98552257 509.1920586 52.46820055 509.39873513 40.75 509.375 C39.23197784 509.37418427 39.23197784 509.37418427 37.68328857 509.37335205 C21.15469428 509.33261956 5.22086001 508.42924222 -11 505 C-12.04188477 504.78037598 -13.08376953 504.56075195 -14.15722656 504.33447266 C-59.24303146 494.50022716 -100.76868497 473.06250056 -134.37890625 441.41015625 C-136.94842207 438.98854452 -136.94842207 438.98854452 -139.640625 436.90625 C-141.76284837 435.19160596 -143.43900162 433.51861761 -145.1875 431.4375 C-147.93891441 428.20577402 -150.7833 425.09502084 -153.6875 422 C-183.88028824 388.74682324 -203.3544231 346.32639326 -212.3125 302.5625 C-212.45985596 301.84360596 -212.60721191 301.12471191 -212.7590332 300.3840332 C-215.71015207 284.85737908 -216.40707988 269.45686592 -216.375 253.6875 C-216.37445618 252.67798279 -216.37391235 251.66846558 -216.37335205 250.62835693 C-216.33258601 234.11876461 -215.42529309 218.20217999 -212 202 C-211.78037598 200.95811523 -211.56075195 199.91623047 -211.33447266 198.84277344 C-201.14872686 152.14549018 -178.06145043 106.05581662 -143 73 C-142.175 72.175 -141.35 71.35 -140.5 70.5 C-139.675 69.675 -138.85 68.85 -138 68 C-137.10474609 67.05253906 -137.10474609 67.05253906 -136.19140625 66.0859375 C-129.66847382 59.31166272 -122.49988222 53.63455292 -115 48 C-114.44715332 47.58105469 -113.89430664 47.16210938 -113.32470703 46.73046875 C-83.51258843 24.27111482 -38.47700134 -1.13167651 0 0 Z M-80 96 C-86.95157676 105.79979224 -91.11191071 116.0456266 -91.14044189 128.08827209 C-91.14341302 128.79053199 -91.14638414 129.49279188 -91.1494453 130.21633238 C-91.15809922 132.56358597 -91.15963775 134.91078837 -91.16113281 137.25805664 C-91.16576346 138.94373686 -91.17078845 140.62941603 -91.17617798 142.31509399 C-91.18928325 146.89190357 -91.19574369 151.46869848 -91.20018864 156.04552388 C-91.20312336 158.90855496 -91.207229 161.77158206 -91.21169281 164.63461113 C-91.22536496 173.60260723 -91.23503209 182.57059422 -91.2388947 191.53860003 C-91.24337005 201.87113016 -91.26089483 212.20352766 -91.2898953 222.53601748 C-91.31156093 230.53454387 -91.32160164 238.53303309 -91.32293582 246.53158849 C-91.32398067 251.30283458 -91.32981972 256.07395593 -91.34775543 260.84517097 C-91.36431993 265.33908818 -91.36635125 269.83278802 -91.35761642 274.32672501 C-91.35685042 275.96811572 -91.36113055 277.60951852 -91.37107468 279.25087929 C-91.47386895 297.28879639 -87.99083254 311.39382305 -75.28125 324.78125 C-62.25631899 337.44933359 -47.42636498 340.19635695 -30 341 C-36.85023883 353.33483519 -43.73970221 365.63979516 -50.875 377.8125 C-55.82094994 386.25620084 -60.74484729 394.71180519 -65.61651611 403.19857788 C-66.32194362 404.4262919 -67.02873797 405.65322172 -67.73699951 406.87930298 C-74.30448947 416.54026949 -74.30448947 416.54026949 -76.625 427.375 C-74.95239544 429.30602932 -74.95239544 429.30602932 -71.625 430 C-70.42875 430 -69.2325 430 -68 430 C-60.47965722 422.47965722 -56.23321136 412.25875856 -51 403 C9.06 403 69.12 403 131 403 C138.425 415.87 138.425 415.87 146 429 C152.39122283 430.70683524 152.39122283 430.70683524 154.875 428.75 C156.1753568 426.88560245 156.1753568 426.88560245 157 424 C153.86124824 415.563717 148.54521872 407.70436748 143.953125 399.98828125 C140.51961494 394.21042327 137.16636693 388.3868396 133.8125 382.5625 C133.18529053 381.47372559 132.55808105 380.38495117 131.91186523 379.26318359 C130.61344571 377.00904459 129.31518991 374.75481127 128.01708984 372.50048828 C125.92714027 368.87229699 123.8329592 365.24655664 121.73828125 361.62109375 C121.04255048 360.41659185 120.34683092 359.21208348 119.65112305 358.00756836 C118.32103455 355.70471967 116.99037862 353.40220197 115.65942383 351.09985352 C115.06282959 350.06658936 114.46623535 349.0333252 113.8515625 347.96875 C113.32385254 347.05544922 112.79614258 346.14214844 112.25244141 345.20117188 C111.46663489 343.82011309 110.71060752 342.42121505 110 341 C111.00417969 340.97421875 112.00835937 340.9484375 113.04296875 340.921875 C131.1993773 340.25230861 145.11018426 335.04378965 158 322 C169.7382832 309.05713316 171.30238758 293.97154353 171.29052734 277.30371094 C171.2965196 275.61906132 171.30332674 273.93441444 171.31088257 272.24977112 C171.32847933 267.69377655 171.33323528 263.13785721 171.33451414 258.58183193 C171.33593994 255.72948624 171.34021766 252.87715941 171.34550858 250.02481842 C171.36398828 240.0570607 171.37218181 230.08935632 171.37060547 220.12158203 C171.36940479 210.85743628 171.39049799 201.59352378 171.4220928 192.32943702 C171.44831871 184.35288652 171.45897012 176.3764119 171.45769465 168.39981866 C171.45718685 163.64589487 171.46276866 158.89217854 171.48405075 154.13829803 C171.50353982 149.66313903 171.50348538 145.18838311 171.48901749 140.71320915 C171.48694142 139.08029777 171.49155774 137.44736045 171.5037384 135.81449318 C171.62618339 118.24836381 167.46769646 104.25658397 155.328125 91.29296875 C142.28936541 78.45110318 127.85275545 75.5435102 110.13012695 75.58007812 C108.43872013 75.57272712 106.7473183 75.5641379 105.05592346 75.55441284 C100.48536144 75.53229251 95.91498023 75.52926152 91.34437203 75.53116035 C87.51537726 75.53128054 83.68642011 75.52269666 79.85743588 75.51438284 C70.81451801 75.49518146 61.77169243 75.49225243 52.72875977 75.49902344 C43.43332891 75.50565618 34.13829566 75.48282322 24.8429454 75.44570971 C16.83405995 75.41490558 8.82530168 75.40366441 0.81635827 75.40754652 C-3.95442021 75.40960361 -8.72488938 75.40429737 -13.49561119 75.37965393 C-17.98810883 75.35721251 -22.47996553 75.35940732 -26.97246742 75.37958145 C-28.60937637 75.38296141 -30.24632994 75.37803456 -31.88317871 75.36359787 C-51.1288883 75.20573874 -67.25568747 80.81119648 -80 96 Z " fill="#FF4F65" transform="translate(216,3)"/>
<path d="M0 0 C0.69802748 -0.00367669 1.39605496 -0.00735338 2.11523479 -0.01114148 C4.45410424 -0.02215384 6.79292922 -0.02601803 9.13182068 -0.02983093 C10.80912415 -0.03609757 12.48642623 -0.04274455 14.16372681 -0.04974365 C19.67318254 -0.07076742 25.18263849 -0.08114633 30.69212341 -0.09111023 C32.59131828 -0.09515879 34.490513 -0.09927575 36.38970757 -0.10346031 C45.31552156 -0.12251043 54.2413273 -0.13674031 63.16715771 -0.14507228 C73.45616703 -0.15483619 83.74496074 -0.18113435 94.03389412 -0.22157317 C101.99501682 -0.2517843 109.95607789 -0.266546 117.91725677 -0.26985329 C122.6678515 -0.2721986 127.41821584 -0.28109088 132.16874886 -0.30631447 C136.64299695 -0.32968697 141.11686447 -0.33379174 145.59115791 -0.32355309 C147.22652455 -0.32305979 148.86191051 -0.32931879 150.49721909 -0.34310913 C164.65789696 -0.45576875 176.27129408 2.08199965 187.00071716 11.92451477 C194.86646456 20.21406322 198.1768781 29.95004546 198.20365906 41.2109375 C198.20663018 41.91052497 198.2096013 42.61011244 198.21266246 43.33089954 C198.22131586 45.66900161 198.22285486 48.00705227 198.22434998 50.34516907 C198.22898057 52.02424223 198.23400556 53.70331435 198.23939514 55.38238525 C198.25249889 59.94046609 198.25896028 64.49853222 198.2634058 69.05662894 C198.26634013 71.90691369 198.27044564 74.75719445 198.27490997 77.60747719 C198.28858031 86.53275429 198.29824892 95.45802223 198.30211186 104.38330907 C198.30658995 114.67227902 198.32412823 124.96111596 198.35311246 135.25004548 C198.37475983 143.21202288 198.3848178 151.17396295 198.38615298 159.13596946 C198.38719893 163.88703105 198.39306176 168.63796753 198.4109726 173.38899803 C198.4275059 177.8615692 198.42958336 182.3339219 198.42083359 186.80651283 C198.42006599 188.44229342 198.42436912 190.078086 198.43429184 191.71383667 C198.51739441 206.2745514 196.37991472 217.64529298 186.47337341 228.96357727 C178.66022926 236.28004233 168.68192709 240.258267 158.12643433 240.29434204 C157.42840684 240.29801873 156.73037936 240.30169542 156.01119953 240.30548352 C153.67233009 240.31649588 151.33350511 240.32036007 148.99461365 240.32417297 C147.31731018 240.33043961 145.64000809 240.33708659 143.96270752 240.34408569 C138.45325178 240.36510946 132.94379583 240.37548837 127.43431091 240.38545227 C125.53511605 240.38950084 123.63592133 240.39361779 121.73672676 240.39780235 C112.81091277 240.41685247 103.88510703 240.43108235 94.95927662 240.43941432 C84.67026729 240.44917823 74.38147359 240.47547639 64.0925402 240.51591522 C56.13141751 240.54612634 48.17035644 240.56088804 40.20917755 240.56419533 C35.45858283 240.56654064 30.70821848 240.57543292 25.95768547 240.60065651 C21.48343738 240.62402901 17.00956986 240.62813378 12.53527641 240.61789513 C10.89990977 240.61740184 9.26452381 240.62366083 7.62921524 240.63745117 C-6.37648267 240.7488778 -17.92867495 238.2963663 -28.61647034 228.62763977 C-36.38402685 220.35700317 -40.05067893 210.24541521 -40.07722473 199.08340454 C-40.08019585 198.38381707 -40.08316698 197.6842296 -40.08622813 196.9634425 C-40.09488153 194.62534043 -40.09642053 192.28728977 -40.09791565 189.94917297 C-40.10254625 188.27009981 -40.10757123 186.59102769 -40.11296082 184.91195679 C-40.12606456 180.35387595 -40.13252596 175.79580983 -40.13697147 171.2377131 C-40.1399058 168.38742835 -40.14401132 165.53714759 -40.14847565 162.68686485 C-40.16214598 153.76158775 -40.1718146 144.83631982 -40.17567754 135.91103297 C-40.18015562 125.62206302 -40.1976939 115.33322608 -40.22667813 105.04429656 C-40.2483255 97.08231916 -40.25838347 89.12037909 -40.25971866 81.15837258 C-40.2607646 76.40731099 -40.26662744 71.65637452 -40.28453827 66.90534401 C-40.30107157 62.43277284 -40.30314903 57.96042014 -40.29439926 53.48782921 C-40.29363166 51.85204862 -40.29793479 50.21625604 -40.30785751 48.58050537 C-40.38770557 34.5900258 -38.63270524 22.71319771 -28.93287659 11.91670227 C-20.72092531 4.08670221 -11.27312687 0.03852767 0 0 Z M-12.12428284 32.33467102 C-19.06602252 41.15415257 -18.38167856 51.43307442 -18.33522034 62.11592102 C-18.33724514 63.76301705 -18.34015995 65.41011221 -18.34391785 67.0572052 C-18.3483221 70.49662372 -18.34197178 73.93580732 -18.32789612 77.37519836 C-18.31080527 81.76296952 -18.3206567 86.15018998 -18.33861351 90.53794098 C-18.34950296 93.93535948 -18.34598146 97.33264945 -18.33823013 100.73007202 C-18.33624236 102.34704658 -18.33863686 103.96403316 -18.34566879 105.58099365 C-18.3866393 117.64719232 -17.84502841 126.99951961 -9.12818909 136.19795227 C-3.14558095 141.5193809 3.23167088 143.26585458 11.10232544 143.28761292 C12.34011246 143.29332306 13.57789948 143.2990332 14.85319519 143.30491638 C16.22227468 143.30616166 17.59135428 143.30728678 18.96043396 143.30830383 C20.40453213 143.31293403 21.84862908 143.31795897 23.29272461 143.323349 C27.21445411 143.33645755 31.13616651 143.34291521 35.0579145 143.34735966 C37.51035081 143.35029353 39.96278248 143.35439898 42.41521645 143.35886383 C50.09482224 143.37253612 57.77441739 143.38220349 65.45403451 143.38606572 C74.30656102 143.39054273 83.15893284 143.40807511 92.01141232 143.43706632 C98.8616863 143.45871824 105.71191687 143.46877191 112.56222469 143.47010684 C116.64984737 143.47115257 120.73732459 143.47701048 124.82491112 143.49492645 C128.67368701 143.51146748 132.52220904 143.51353361 136.37100792 143.50478745 C137.77822553 143.50402022 139.18545712 143.508318 140.59263992 143.5182457 C152.28568351 143.59585592 160.46336697 142.53629608 169.11399841 134.33857727 C174.77427143 127.97502383 176.1797595 121.38885899 176.22434998 113.05879211 C176.22931488 112.35250671 176.23427979 111.64622131 176.23939514 110.91853333 C176.25397718 108.58588171 176.26081389 106.25329821 176.26634216 103.92060852 C176.27209904 102.29118347 176.2778567 100.66175842 176.28361511 99.03233337 C176.29411536 95.61439195 176.29996369 92.19647396 176.30345154 88.77851868 C176.30891917 84.42102188 176.33291398 80.06384024 176.36142349 75.70644188 C176.38014972 72.33817169 176.38526086 68.96997569 176.38678741 65.60165787 C176.3897945 63.99665743 176.3977565 62.39165768 176.4109726 60.78670883 C176.5048749 48.50143969 176.15350718 38.32406284 167.25071716 29.06123352 C160.92010507 23.52194794 154.25553173 22.02994545 145.9797821 22.00672913 C144.14628204 21.99816391 144.14628204 21.99816391 142.27574158 21.98942566 C140.92918406 21.98818047 139.58262643 21.98705534 138.23606873 21.98603821 C136.81152723 21.98140653 135.38698696 21.9763814 133.96244812 21.97099304 C130.09862722 21.95790041 126.23482368 21.95143018 122.37098408 21.94698238 C119.95422192 21.94404648 117.53746444 21.93994069 115.12070465 21.93547821 C107.5510931 21.9218113 99.98149232 21.9121408 92.41186929 21.90827632 C83.68896301 21.90379794 74.96621362 21.88625694 66.24335504 21.85727572 C59.49072459 21.8356232 52.73813817 21.82557013 45.98547339 21.8242352 C41.95710952 21.82318969 37.92889327 21.81733629 33.9005661 21.79941559 C30.10840935 21.78287305 26.31651024 21.78080914 22.52433014 21.7895546 C21.13807482 21.79032169 19.75180529 21.7860258 18.36558533 21.77609634 C6.2334436 21.69433989 -3.47035158 23.15047437 -12.12428284 32.33467102 Z M-13.93678284 175.14717102 C-19.96110556 182.91537663 -20.81694876 190.56690349 -19.93678284 200.14717102 C-18.21837562 207.90175547 -14.13837137 213.29131599 -7.93678284 218.14717102 C-0.1287105 222.94892673 6.94688469 223.89006191 16.06321716 223.14717102 C24.18939305 221.10021321 30.39848155 215.58327747 35.43821716 209.08467102 C39.64781789 201.47500817 40.56371255 193.04133256 38.41087341 184.58467102 C35.23673269 176.73786819 29.45825101 170.23804081 22.06321716 166.14717102 C8.10942602 160.75326856 -3.93190868 164.73393466 -13.93678284 175.14717102 Z M125.06321716 175.14717102 C119.05257491 182.89773603 118.15482804 190.58033874 119.06321716 200.14717102 C121.13282436 208.27688551 126.61591407 214.47375229 133.12571716 219.52217102 C140.73538002 223.73177175 149.16905563 224.64766641 157.62571716 222.49482727 C165.47251999 219.32068654 171.97234738 213.54220487 176.06321716 206.14717102 C178.99266843 198.56880796 179.59441986 189.98262276 176.50071716 182.33467102 C172.48874418 174.62260988 166.46258438 168.23432137 158.27415466 165.06904602 C145.00755694 161.26014448 134.28026695 165.55391512 125.06321716 175.14717102 Z " fill="#FF4765" transform="translate(176.93678283691406,90.85282897949219)"/>
<path d="M0 0 C1.81053108 -0.00856522 1.81053108 -0.00856522 3.65763855 -0.01730347 C4.9921111 -0.01854873 6.32658377 -0.01967384 7.66105652 -0.02069092 C9.06899139 -0.02532119 10.47692501 -0.03034613 11.88485718 -0.03573608 C15.707282 -0.04884171 19.52968927 -0.05530141 23.35213304 -0.05974674 C25.74157016 -0.06268034 28.13100252 -0.06678569 30.52043724 -0.07125092 C38.00034685 -0.08492081 45.48024552 -0.09459004 52.96016675 -0.09845281 C61.58745293 -0.10293291 70.21458063 -0.12048066 78.84181863 -0.1494534 C85.51541747 -0.17108548 92.18897176 -0.1811579 98.86260527 -0.18249393 C102.84620777 -0.18354083 106.82966119 -0.18942424 110.8132267 -0.20731354 C114.56186384 -0.22382077 118.31024024 -0.22593699 122.05890083 -0.21717453 C124.08407108 -0.21603998 126.10923279 -0.22973669 128.13435364 -0.243927 C135.78837173 -0.20885741 141.30369601 0.06293411 147.41178894 5.01544189 C150.98505299 9.51510773 151.3557156 13.63907482 151.38981628 19.2822876 C151.39653351 19.98217804 151.40325073 20.68206848 151.41017151 21.40316772 C151.42910537 23.70759259 151.43307349 26.01172542 151.43522644 28.31622314 C151.4416582 29.92659116 151.44838684 31.53695801 151.45539856 33.14732361 C151.46736023 36.5206269 151.47108059 39.89382788 151.46989441 43.26715088 C151.46969142 47.57450565 151.49697693 51.88119914 151.53143883 56.18839741 C151.55375705 59.51457184 151.55773043 62.84058844 151.55667496 66.16683006 C151.55902415 67.75395165 151.56780906 69.34107804 151.58333969 70.92812538 C151.73254846 87.75218755 151.73254846 87.75218755 147.09928894 93.14044189 C139.96605173 97.87385121 133.26494532 97.71151914 124.91569519 97.65802002 C123.48908272 97.66344784 122.06247587 97.6705742 120.63587952 97.67926025 C116.78042601 97.69741837 112.92540303 97.69045751 109.06994247 97.67774391 C105.02445615 97.66757705 100.97900531 97.67701978 96.93351746 97.68328857 C90.14137696 97.6905543 83.34941076 97.68100563 76.55729675 97.66192627 C68.71823311 97.64015949 60.87958568 97.64721163 53.04053211 97.66923189 C46.2954672 97.68741666 39.55052719 97.68992923 32.80544567 97.67947721 C28.78329845 97.67325913 24.76134651 97.67235996 20.73921204 97.68562317 C16.95674906 97.69722607 13.17481976 97.6890759 9.39241409 97.66604614 C8.00897734 97.66078259 6.62549524 97.66223233 5.24207687 97.6710968 C-2.54132208 97.71635061 -8.31937921 97.50881966 -14.90071106 93.14044189 C-20.65875184 86.41959681 -19.48137942 77.00120323 -19.43196106 68.67169189 C-19.43466005 67.06561041 -19.43854584 65.45953052 -19.44355774 63.85345459 C-19.44943374 60.49794865 -19.44095174 57.1428705 -19.42219543 53.78741455 C-19.39940655 49.5036132 -19.41253993 45.22081451 -19.43648529 40.93704987 C-19.45099507 37.62370356 -19.44631372 34.31059184 -19.43597412 30.99723816 C-19.4333211 29.41851175 -19.43652602 27.83976348 -19.44589233 26.26106262 C-19.51721504 10.86346471 -19.51721504 10.86346471 -14.90071106 4.14044189 C-10.18878829 0.48870175 -5.82974304 0.01652948 0 0 Z " fill="#FF3D66" transform="translate(189.9007110595703,124.85955810546875)"/>
<path d="M0 0 C47.52 0 95.04 0 144 0 C156 21 156 21 156 22 C100.56 22 45.12 22 -12 22 C-8 14.66666667 -4 7.33333333 0 0 Z " fill="#FF6365" transform="translate(184,371)"/>
<path d="M0 0 C0.91963531 -0.01575577 1.83927063 -0.03151154 2.78677368 -0.04774475 C3.7987381 -0.0546936 4.81070251 -0.06164246 5.85333252 -0.06880188 C6.91687958 -0.08355057 7.98042664 -0.09829926 9.07620239 -0.11349487 C12.60769674 -0.15814102 16.13902542 -0.18627387 19.67071533 -0.21064758 C20.87497414 -0.22004679 22.07923294 -0.22944599 23.31998444 -0.23913002 C29.69404017 -0.286748 36.0680129 -0.32041445 42.44219971 -0.3441925 C49.03156225 -0.37191132 55.619266 -0.45108464 62.20801926 -0.54173565 C67.26951573 -0.60149664 72.33061576 -0.62145367 77.39243317 -0.63070107 C79.82142388 -0.64230089 82.25039127 -0.66919596 84.679039 -0.71162987 C88.07964476 -0.76752282 91.47583522 -0.76677641 94.87677002 -0.75239563 C96.38257126 -0.79621872 96.38257126 -0.79621872 97.91879272 -0.84092712 C104.61324459 -0.73117192 104.61324459 -0.73117192 107.55350494 2.27206993 C109.0933133 4.55713313 110.38509574 6.84239764 111.62384033 9.30107117 C112.24259033 10.27044617 112.86134033 11.23982117 113.49884033 12.23857117 C114.62384033 14.30107117 114.62384033 14.30107117 114.62384033 16.30107117 C72.38384033 16.30107117 30.14384033 16.30107117 -13.37615967 16.30107117 C-5.25791706 0.06458594 -5.25791706 0.06458594 0 0 Z " fill="#FF5D65" transform="translate(205.37615966796875,342.6989288330078)"/>
<path d="M0 0 C0.90443848 -0.00315216 1.80887695 -0.00630432 2.74072266 -0.009552 C4.18777588 -0.00651566 4.18777588 -0.00651566 5.6640625 -0.00341797 C7.16718994 -0.00485306 7.16718994 -0.00485306 8.70068359 -0.00631714 C10.81543033 -0.00699642 12.93017917 -0.00515971 15.04492188 -0.00097656 C18.2773915 0.00437521 21.50972218 -0.00093012 24.7421875 -0.00732422 C26.79947947 -0.00666339 28.85677136 -0.00538214 30.9140625 -0.00341797 C31.87876465 -0.0054422 32.8434668 -0.00746643 33.83740234 -0.009552 C35.19406006 -0.00482376 35.19406006 -0.00482376 36.578125 0 C37.76462646 0.00119339 37.76462646 0.00119339 38.97509766 0.00241089 C41.48857157 0.14034301 43.83485811 0.58202735 46.2890625 1.12939453 C47.07431564 18.90665308 47.07431564 18.90665308 42.2890625 26.12939453 C41.8765625 26.76232422 41.4640625 27.39525391 41.0390625 28.04736328 C36.70187776 33.82616909 30.72391282 37.09029484 23.73828125 38.72705078 C14.81601042 39.93426316 7.67669219 38.14216232 0.3671875 32.90283203 C-4.75822697 28.5288881 -8.0187703 23.66412315 -9.7109375 17.12939453 C-9.9301642 14.3301975 -9.90188749 11.55980564 -9.8359375 8.75439453 C-9.82691406 8.01833984 -9.81789062 7.28228516 -9.80859375 6.52392578 C-9.78523894 4.72560573 -9.74937586 2.92745542 -9.7109375 1.12939453 C-6.4181553 0.39499731 -3.37154044 0.00339111 0 0 Z " fill="#FF2165" transform="translate(237.7109375,-0.12939453125)"/>
<path d="M0 0 C4.32590965 3.08993546 7.65747192 6.4787867 8.625 11.875 C9.13813935 17.85504699 9.1686499 22.79576848 5.625 27.875 C1.18706676 32.23009182 -1.91283008 34.03228105 -8.125 34.125 C-12.9751453 34.07278552 -16.34194591 33.79896421 -20.375 30.875 C-25.18405392 25.79877642 -26.86394427 21.12027071 -26.69140625 14.21875 C-25.97707523 8.92740909 -23.63584096 5.07433652 -19.8125 1.4375 C-13.93733407 -2.32863201 -6.48115311 -2.16038437 0 0 Z " fill="#FF5B65" transform="translate(334.375,268.125)"/>
<path d="M0 0 C4.33641906 3.06722324 7.16037313 6.67136814 8.5625 11.8125 C9.38844446 18.33245548 8.35719195 23.40200374 4.5625 28.8125 C-0.77300226 33.88773386 -5.37724251 34.16237281 -12.48828125 34.09375 C-17.76960807 33.59010029 -20.32468282 31.04562174 -23.75 27.25 C-27.10857736 22.39872159 -26.90566072 17.50845545 -26.4375 11.8125 C-24.69957426 5.92286276 -22.30343238 3.2592021 -17.4375 -0.1875 C-11.76602986 -2.07799005 -5.62952086 -1.94474357 0 0 Z " fill="#FF4865" transform="translate(195.4375,268.1875)"/>
</svg>
