<svg width="29" height="45" viewBox="0 0 29 45" fill="none" xmlns="http://www.w3.org/2000/svg">
<path d="M21.478 14.3683C21.478 18.3345 18.2321 21.5522 14.2281 21.5522C10.2236 21.5522 6.97825 18.3345 6.97825 14.3683C6.97825 10.4009 10.2241 7.18427 14.2281 7.18427C18.2329 7.18399 21.478 10.4006 21.478 14.3683ZM29 14.3683C29 6.43274 22.5085 0 14.5 0C6.49204 0 0 6.43274 0 14.3683C0 17.8573 1.25628 21.0563 3.34392 23.5447L14.5125 39.5125L25.8445 23.3118C26.2515 22.8071 26.6242 22.2751 26.9605 21.7159L27.0751 21.5531H27.0563C28.2903 19.4384 29 16.9866 29 14.3683Z" fill="url(#paint0_linear_140_1351)"/>
<path d="M21.2208 14.3792C21.2208 18.2485 18.0687 21.3876 14.1804 21.3876C10.2915 21.3876 7.13996 18.2485 7.13996 14.3792C7.13996 10.5089 10.2921 7.37091 14.1804 7.37091C18.0695 7.37064 21.2208 10.5086 21.2208 14.3792ZM28.5256 14.3792C28.5256 6.63775 22.2216 0.362305 14.4444 0.362305C6.66779 0.362305 0.363281 6.63775 0.363281 14.3792C0.363281 17.7829 1.58328 20.9038 3.61061 23.3313L14.4566 38.9087L25.4612 23.1041C25.8564 22.6117 26.2184 22.0928 26.545 21.5473L26.6563 21.3884H26.638C27.8364 19.3254 28.5256 16.9335 28.5256 14.3792Z" fill="url(#paint1_linear_140_1351)"/>
<circle cx="14.5016" cy="14.5003" r="11.9625" fill="url(#paint2_linear_140_1351)"/>
<circle cx="14.4719" cy="14.4703" r="11.2077" fill="url(#paint3_linear_140_1351)"/>
<circle cx="14.5024" cy="14.5007" r="10.875" fill="url(#paint4_linear_140_1351)"/>
<path d="M17.9652 20.0733H18.2968C18.7122 20.0733 19.1107 19.9143 19.4044 19.6313C19.6982 19.3483 19.8632 18.9644 19.8632 18.5641V9.50916C19.8632 9.10891 19.6982 8.72505 19.4044 8.44202C19.1107 8.159 18.7122 8 18.2968 8H10.9032C10.4878 8 10.0893 8.159 9.79558 8.44202C9.50182 8.72505 9.33678 9.10891 9.33678 9.50916V18.5641C9.33678 18.9644 9.50182 19.3483 9.79558 19.6313C10.0893 19.9143 10.4878 20.0733 10.9032 20.0733H11.2348L9 22H10.4228L11.1382 21.3838H18.0749L18.7902 22H20.2L17.9652 20.0733ZM17.7329 19.1452C17.578 19.1452 17.4265 19.1009 17.2977 19.018C17.1689 18.9351 17.0686 18.8172 17.0093 18.6794C16.95 18.5415 16.9345 18.3897 16.9647 18.2434C16.9949 18.097 17.0695 17.9625 17.179 17.857C17.2886 17.7515 17.4281 17.6796 17.5801 17.6505C17.732 17.6214 17.8895 17.6363 18.0326 17.6934C18.1757 17.7506 18.298 17.8473 18.3841 17.9714C18.4701 18.0955 18.5161 18.2413 18.5161 18.3906C18.5179 18.4901 18.4988 18.589 18.4601 18.6814C18.4213 18.7737 18.3637 18.8575 18.2906 18.9279C18.2175 18.9984 18.1305 19.0539 18.0347 19.0912C17.9388 19.1285 17.8362 19.1469 17.7329 19.1452ZM12.8456 8.58103H16.3518C16.466 8.58103 16.5756 8.62475 16.6564 8.70258C16.7372 8.78042 16.7826 8.88598 16.7826 8.99605C16.7826 9.10612 16.7372 9.21168 16.6564 9.28951C16.5756 9.36734 16.466 9.41107 16.3518 9.41107H12.8482C12.734 9.41107 12.6244 9.36734 12.5436 9.28951C12.4628 9.21168 12.4174 9.10612 12.4174 8.99605C12.4174 8.88598 12.4628 8.78042 12.5436 8.70258C12.6244 8.62475 12.734 8.58103 12.8482 8.58103H12.8456ZM10.12 14.5674V10.7693C10.12 10.5692 10.2025 10.3773 10.3494 10.2357C10.4963 10.0942 10.6955 10.0147 10.9032 10.0147H18.2968C18.5045 10.0147 18.7037 10.0942 18.8506 10.2357C18.9975 10.3773 19.08 10.5692 19.08 10.7693V14.5674C19.08 14.7675 18.9975 14.9594 18.8506 15.1009C18.7037 15.2425 18.5045 15.322 18.2968 15.322H10.9032C10.6955 15.322 10.4963 15.2425 10.3494 15.1009C10.2025 14.9594 10.12 14.7675 10.12 14.5674ZM10.6839 18.4032C10.6839 18.2534 10.7302 18.107 10.8169 17.9827C10.9035 17.8583 11.0266 17.7616 11.1705 17.7049C11.3144 17.6482 11.4725 17.634 11.6248 17.6641C11.7771 17.6943 11.9166 17.7674 12.0256 17.8742C12.1346 17.981 12.2081 18.1166 12.2369 18.2638C12.2656 18.411 12.2482 18.5631 12.1869 18.7007C12.1256 18.8384 12.0232 18.9554 11.8927 19.0367C11.7622 19.1181 11.6095 19.1602 11.4541 19.1577C11.3518 19.1578 11.2506 19.1382 11.1563 19.1001C11.062 19.062 10.9765 19.0062 10.9048 18.936C10.8331 18.8657 10.7767 18.7825 10.7388 18.691C10.7008 18.5995 10.6822 18.5017 10.6839 18.4032ZM12.1642 20.4783L12.6289 20.0733H16.5789L17.0254 20.4783H12.1642Z" fill="#FF6B83"/>
<ellipse cx="14.3189" cy="42.4127" rx="9.24375" ry="1.8125" fill="url(#paint5_radial_140_1351)" fill-opacity="0.6"/>
<defs>
<linearGradient id="paint0_linear_140_1351" x1="-5.10031e-08" y1="7.98909" x2="22.0987" y2="32.6139" gradientUnits="userSpaceOnUse">
<stop stop-color="#FF6B83"/>
<stop offset="1" stop-color="#E05E73"/>
</linearGradient>
<linearGradient id="paint1_linear_140_1351" x1="0.363281" y1="8.15605" x2="21.932" y2="32.081" gradientUnits="userSpaceOnUse">
<stop stop-color="#FF6B83"/>
<stop offset="1" stop-color="#E8667B"/>
</linearGradient>
<linearGradient id="paint2_linear_140_1351" x1="26.5277" y1="19.562" x2="1.18487" y2="11.0499" gradientUnits="userSpaceOnUse">
<stop stop-color="#FF6B83"/>
<stop offset="1" stop-color="#EB6379"/>
</linearGradient>
<linearGradient id="paint3_linear_140_1351" x1="25.7392" y1="19.2126" x2="1.99541" y2="11.2376" gradientUnits="userSpaceOnUse">
<stop stop-color="white"/>
<stop offset="1" stop-color="#999999"/>
</linearGradient>
<linearGradient id="paint4_linear_140_1351" x1="4.89619" y1="10.332" x2="24.1087" y2="25.3757" gradientUnits="userSpaceOnUse">
<stop stop-color="white"/>
<stop offset="1" stop-color="#C7C7C7"/>
</linearGradient>
<radialGradient id="paint5_radial_140_1351" cx="0" cy="0" r="1" gradientUnits="userSpaceOnUse" gradientTransform="translate(14.3189 42.4127) scale(9.24375 1.8125)">
<stop/>
<stop offset="1" stop-color="#666666" stop-opacity="0"/>
</radialGradient>
</defs>
</svg>
