<svg id="Layer_1" data-name="Layer 1" xmlns="http://www.w3.org/2000/svg" viewBox="0 0 570.83 300"><defs><style>.cls-1{fill:#503189;}.cls-2{fill:none;}.cls-3{fill:#d5581d;}.cls-4{fill:#912885;}.cls-5{fill:#a6c841;}.cls-6{fill:#c72084;}.cls-7{fill:#8a1e1f;}.cls-8{fill:#8e2685;}.cls-9{fill:#66a9dd;}.cls-10{fill:#333189;}.cls-11{fill:#4272b8;}.cls-12{fill:#4c854f;}.cls-13{fill:#010101;}</style></defs><title>Mumbai Metro</title><path class="cls-1" d="M79.76,111.15c-6-1.43-11.42-2.54-17.44-2.54v16.5a190,190,0,0,0,34.4-9C94.66,112.74,85.62,112.74,79.76,111.15Z"/><path class="cls-2" d="M95.14,80.87a56.21,56.21,0,0,0-5.55,4.91l4.91-2.54c7.93-4,16.49-8.4,25.37-13a475.54,475.54,0,0,1,76.27-33.93,76.38,76.38,0,0,0-21.4-4.92C154,30,128.44,49,95.14,80.87Z"/><path class="cls-2" d="M294.45,99.26c-17.92-14.91-36.31-28.86-55.81-40.91-41.86,7-74.21,23.94-103.54,39.32-9.52,4.92-17.92,9.52-27,14-4,1.42-7.45,3.49-11.42,4.91a229.23,229.23,0,0,1,27,10.94,375.38,375.38,0,0,1,45.82,28.39,402.36,402.36,0,0,0,42.82,26.32c10.46,6,22.35,10,34.4,10.46,28.39,0,47.26-5.55,96.57-55.34l.95-.95a309.67,309.67,0,0,1-29.81-20.93C307.77,110.2,300.79,104.18,294.45,99.26Z"/><path class="cls-2" d="M313.32,75.32c6.5,4.91,13.48,10.46,20,16a315.74,315.74,0,0,0,33.3,23c9-8.4,17.91-17,27.43-24.89A276.88,276.88,0,0,0,288,55.5,317.38,317.38,0,0,1,313.32,75.32Z"/><path class="cls-3" d="M373.1,150.63c2.53,1,5.55,2.07,8.4,3a140.9,140.9,0,0,0,35.36,6l1.43-30.92a128.86,128.86,0,0,1-20.46-3C389,134.62,380.55,143.18,373.1,150.63Z"/><path class="cls-4" d="M89.59,85.31a27.76,27.76,0,0,0,5.55-4.92c33.3-31.39,58.35-50.74,79.75-49.31,7.46.47,14.43,2.53,21.41,4.91a274.76,274.76,0,0,1,47.89-10.46C224.21,14.11,201.85,2.06,177,.16,141.12-2.38,107.66,26,73.89,57.4c-27.59,25.37-55,20.93-56.45,20.45h0L14,96.72C30.92,98.31,62.32,96.72,89.59,85.31Z"/><path class="cls-3" d="M313.32,75.32c-7.93-6.5-16.49-13.48-24.89-20-3.49,0-6.51-.48-10-.48h0a273.3,273.3,0,0,0-40.91,3,553.45,553.45,0,0,1,56.76,41.39c6.5,5.55,13.48,10.94,20.46,16a355.33,355.33,0,0,0,29.81,20.93c7.45-7.45,14.9-14.9,23-22.35a211,211,0,0,1-33.3-23C326.8,85.78,319.82,80.39,313.32,75.32Z"/><path class="cls-5" d="M569.4,56.92C532,30.6,488.69,30.6,441,56.92A196.36,196.36,0,0,0,420,70.4c5.55,3.49,10.94,6,16.49,9.52l1.43,1,2.54,1.42c3,1.43,6,4,9,5.55,1.42-1,4.91-3,6.5-4,37.42-20.46,68.81-20.93,96.09-2.06l1,1,17.76-24.9Z"/><path class="cls-6" d="M394.5,89.27c-9.51,7.93-18.87,16-27.9,24.89a118.08,118.08,0,0,0,23.94,10.47,65.19,65.19,0,0,0,7.45,2.06c7.45-7,16-14,24.42-20.45a23,23,0,0,0-2.06-1.43A195.25,195.25,0,0,0,394.5,89.27Z"/><path class="cls-6" d="M343.76,137.16c-49.31,49.78-68.18,55.33-96.56,55.33A82.9,82.9,0,0,1,212.79,182c-14.9-7.93-28.86-17-42.81-26.32a413.62,413.62,0,0,0-45.83-28.38,163,163,0,0,0-26.95-11,250.61,250.61,0,0,1-34.88,9l-.48,14.43c4,0,7.45,1,11.42,2.06a180.66,180.66,0,0,1,36.31,13c14.9,7.92,28.86,17,42.81,26.32a435.77,435.77,0,0,0,46.3,28.38A110.66,110.66,0,0,0,247,223.57c42.34,0,69.29-14.43,118.61-64.69l7.92-7.93a177.7,177.7,0,0,1-28.85-14.9Z"/><path class="cls-7" d="M367.07,113.69q-11.9,11.18-22.35,22.36c9,5.55,18.39,10.94,28.85,14.9,7.46-7.45,16-16,25.37-24.42a32.53,32.53,0,0,1-7.45-2.06A149.32,149.32,0,0,1,367.07,113.69Z"/><path class="cls-8" d="M425,107.19l1.42,1c46.78,27,85.63,33.3,110,33.93l.47-30.92c-19.5-.47-49.31-5.55-86.73-24.89a278.61,278.61,0,0,0-28.38,19.5C423.36,106.71,423.84,107.19,425,107.19Zm2.85,1.11Z"/><path class="cls-9" d="M288.43,55.5A273.1,273.1,0,0,1,394.5,89.43c8.41-7,17.45-14,27-20.46-47.25-27.9-96.09-43.76-142.39-44.87h-.95a244.52,244.52,0,0,0-33.93,2.06l7,4.44A380.62,380.62,0,0,1,288.43,55.5Z"/><path class="cls-9" d="M79.76,111.15c5.55.95,10.94,3,16.49,4.44a82.86,82.86,0,0,0,11.41-4.91c9-4,17.45-9,27-14C164,81.34,195.82,64.38,238.16,57.4L235.62,56A254.09,254.09,0,0,0,196.3,36,482,482,0,0,0,120,69.93c-9,4.91-17.44,9.51-25.37,13l-4.91,2.53c-37.9,30.77-76.27,23.31-77.86,23.31l2.54-10.94c-6.5,0-10.94-.47-11.42-.47H3L0,128.12a288.68,288.68,0,0,0,61.84-2.54l.48-16A58.05,58.05,0,0,1,79.76,111.15Z"/><path class="cls-10" d="M89.59,85.31C62.16,96.72,30.76,97.83,14.43,97.83l-2.54,10.94C14,109.25,52.33,116.7,89.59,85.31Z"/><path class="cls-11" d="M236.1,56.45l2.06,1.42a262.09,262.09,0,0,1,40.28-3h0c3.48,0,7,.48,10.46.48A442.21,442.21,0,0,0,251.48,30L245,26a268.71,268.71,0,0,0-47.89,10.47C210.25,42,223.1,49,236.1,56.45Z"/><path class="cls-12" d="M438.9,79.92l-1.43-1c-5.55-3.48-10.46-7-16-10-9.51,6.51-17.92,13-27,20.46,8.41,4.44,17.45,10,25.85,15.38a11.45,11.45,0,0,1,2.06,1.43,299.52,299.52,0,0,1,28.38-19.51,83.57,83.57,0,0,1-9-4.91Z"/><path class="cls-13" d="M37.42,298.57V241.81H48.84l13.48,40.27a37.43,37.43,0,0,0,3,8.41,70.61,70.61,0,0,1,3-9l13.48-39.33h10v56.93h-7V251.8L68.18,299.52h-7l-16.5-48.36v48.36Z"/><path class="cls-13" d="M130,298.57v-6a15.76,15.76,0,0,1-13,7,18.33,18.33,0,0,1-7-1.42,7.68,7.68,0,0,1-4.44-3.49c-.95-1.43-2.06-3-2.06-4.92a30.29,30.29,0,0,1-.47-6.5V257.35h7V280a38.82,38.82,0,0,0,.48,7.45c.47,1.43,1.43,3.49,3,4.44a10.34,10.34,0,0,0,5.55,1.43,14,14,0,0,0,6-1.43c2.06-1,3-2.53,4-4.44a15.39,15.39,0,0,0,1-7.92V257.66h7v41.39Z"/><path class="cls-13" d="M147.46,298.57V257.19h6v6a11.31,11.31,0,0,1,4.91-4.91c2.54-.95,4.92-2.06,7.46-2.06s5.55.47,7.45,2.06a8.35,8.35,0,0,1,4,5.55c2.54-4.44,7.46-7,13-7a13.14,13.14,0,0,1,9.51,3.49,15.46,15.46,0,0,1,3.49,10.46v28.23h-7V273.2a25.5,25.5,0,0,0-.48-6,4.89,4.89,0,0,0-2.53-3,6.18,6.18,0,0,0-4-1c-2.53,0-5.55,1-7,3a14.74,14.74,0,0,0-3,9v23.79h-7v-27a16.64,16.64,0,0,0-1.43-7,8.24,8.24,0,0,0-5.55-2.54,10.65,10.65,0,0,0-5.55,1.43,8.18,8.18,0,0,0-3.49,4.44,25.88,25.88,0,0,0-1,8.4v21.41h-7.93Z"/><path class="cls-13" d="M219.61,298.57h-6.5V241.81h7v20.45a14.28,14.28,0,0,1,11.42-5.55,16.66,16.66,0,0,1,7,1.43,16.45,16.45,0,0,1,5.55,4.44c1.42,2.06,3,4.44,3.49,6.5a16.74,16.74,0,0,1,.95,8.4A24.25,24.25,0,0,1,243.55,294,17.53,17.53,0,0,1,231,300a13.27,13.27,0,0,1-11.42-6v4.6Zm0-20.93a20.66,20.66,0,0,0,2.06,10.94A10,10,0,0,0,235.15,293a6.29,6.29,0,0,0,3.49-3,19.49,19.49,0,0,0,3.49-11.89c.47-4-1-8.41-3-11.89a9.55,9.55,0,0,0-7.93-4,10,10,0,0,0-7.92,4c-2.54,3.33-4.13,7.45-3.65,11.41Z"/><path class="cls-13" d="M284.46,293.5a21.13,21.13,0,0,1-7.45,4.44,20.77,20.77,0,0,1-7.45,1.43,15.52,15.52,0,0,1-10.47-3.49c-4.44-4.44-4.91-11.89-.47-16.49a5.67,5.67,0,0,1,2.06-1.43,16.07,16.07,0,0,1,4.91-2.54,26.84,26.84,0,0,1,6-.95c4-.47,8.4-1,12.52-2.54v-2.06a8.44,8.44,0,0,0-2.06-6,11.34,11.34,0,0,0-7.93-2.54,20.77,20.77,0,0,0-7.45,1.43,8.75,8.75,0,0,0-3.49,6l-7-.95a16,16,0,0,1,3-7,9.33,9.33,0,0,1,6-4,30.67,30.67,0,0,1,9.51-1.43,43.44,43.44,0,0,1,8.4,1,8.88,8.88,0,0,1,4.92,3c.95,1.43,2.06,3,2.06,4.91a29.67,29.67,0,0,1,.48,6.5v9.52a117.22,117.22,0,0,0,.47,12.52,11.58,11.58,0,0,0,2.06,4.92h-7.77A8.55,8.55,0,0,1,284.46,293.5ZM284,278.12a44.5,44.5,0,0,1-11.42,2.54c-2.06.47-4,.47-6,1.42a10.77,10.77,0,0,0-3,2.54,6.92,6.92,0,0,0,1,7.93,10.3,10.3,0,0,0,6,2.06,16.64,16.64,0,0,0,7-1.43,10.23,10.23,0,0,0,4.44-4.91c1-1.91,1-4.44,1-7v-3H284Z"/><path class="cls-13" d="M301.9,249.74v-7.93h7v7.93Zm0,48.83V257.66h7v41.39Z"/><path class="cls-13" d="M342.18,298.57V241.81h11.41l13.48,40.27c.95,4,2.06,6.5,2.54,8.41a74,74,0,0,1,3-9l13.48-39.33h10v56.93h-7V251.8l-16.49,47.25h-7l-16.5-48.36v48.36h-7v-.48Z"/><path class="cls-13" d="M435.41,285.1l7.46.95a16.91,16.91,0,0,1-6.51,10,19.47,19.47,0,0,1-11.89,3.48C418.92,300,414,297.46,410,294a22.75,22.75,0,0,1-5.55-15.38,20.83,20.83,0,0,1,5.55-16,18.14,18.14,0,0,1,14-6,19.51,19.51,0,0,1,13.47,5.55,22.07,22.07,0,0,1,4.92,16v1.43H412.58a15.94,15.94,0,0,0,4,10.46c2.07,2.54,5.55,3.49,8.41,3.49a9.71,9.71,0,0,0,6.5-2.06A12.12,12.12,0,0,0,435.41,285.1Zm-23-11h23a13.87,13.87,0,0,0-2.53-7.92,11.43,11.43,0,0,0-8.41-4,9.56,9.56,0,0,0-7.93,3.49c-2.69,1.9-3.64,4.92-4.12,8.4Z"/><path class="cls-13" d="M466.65,292.55l1,6a19.41,19.41,0,0,1-5.55.48,26.75,26.75,0,0,1-6-.95,6.18,6.18,0,0,1-3-3,47.43,47.43,0,0,1-.95-8.4v-24.1h-4.91V257h4.91V247l7-4v14.43h7v5.54h-7V287a11.47,11.47,0,0,0,.47,4c0,.48.48,1,1,1.43s1.42.47,2.53.47A18.07,18.07,0,0,1,466.65,292.55Z"/><path class="cls-13" d="M473.63,298.57V257.19h6.5v6a24.21,24.21,0,0,1,4.44-6,8.15,8.15,0,0,1,4.44-1.43,14.92,14.92,0,0,1,7,2.06l-2.53,6.5a8.57,8.57,0,0,0-4.92-1.42,5.78,5.78,0,0,0-4,1.42,11.43,11.43,0,0,0-2.54,4,23.14,23.14,0,0,0-.95,7.93v21.24h-7.45v1.11Z"/><path class="cls-13" d="M497.57,278.12a21.65,21.65,0,0,1,6.5-17,19.34,19.34,0,0,1,13-4.44,20.36,20.36,0,0,1,14,5.55c4,4,5.55,10,5.55,15.38,0,4.44-.48,8.41-2.54,12.53a15,15,0,0,1-7,7,24,24,0,0,1-10,2.53,19.5,19.5,0,0,1-14-5.55A22.3,22.3,0,0,1,497.57,278.12Zm7,0A16.8,16.8,0,0,0,508,290a11.75,11.75,0,0,0,9,4,10.24,10.24,0,0,0,8.41-4A17.49,17.49,0,0,0,529,278.12a15.63,15.63,0,0,0-3.48-11.42,11.3,11.3,0,0,0-16.49-.95c-.48.48-1,.48-1,.95A14.83,14.83,0,0,0,504.55,278.12Z"/></svg>